<svg width="57" height="38" viewBox="0 0 57 38" fill="none" xmlns="http://www.w3.org/2000/svg">
<g clip-path="url(#clip0_1297_2433)">
<path d="M52.8061 19.5827C51.73 17.1525 40.0464 13.5816 37.8789 12.8316" stroke="white" stroke-width="0.804518" stroke-miterlimit="10" stroke-linecap="round" stroke-linejoin="round"/>
<path d="M8.80202 23.1636C8.80202 23.1636 10.2104 24.4283 13.7081 24.7039C19.8359 25.1807 22.7599 28.7505 32.3521 27.3678C39.8703 26.2864 43.6251 25.1547 44.8986 24.7165C45.1674 24.6194 45.3652 24.3763 45.3757 24.0842C45.4034 23.5307 45.6797 22.5945 47.1435 22.0678C49.3092 21.288 52.4776 19.1689 53.2233 19.6556C53.969 20.1423 55.6487 22.767 55.3664 23.7125C55.084 24.658 50.6051 28.1815 44.1479 29.9487C37.6907 31.7158 30.2778 33.5239 25.3012 33.9312C20.3246 34.3386 19.1435 32.1722 18.0946 32.1523C17.0457 32.1323 9.20204 32.6624 7.77846 30.8694C6.35489 29.0764 5.83813 27.0112 6.5567 25.0877C7.27528 23.1641 9.03099 21.5851 9.46539 19.0774C9.89979 16.5696 10.8618 11.615 10.8618 11.615C10.8618 11.615 7.96932 7.70031 9.38122 6.12956C10.8129 4.5385 16.1489 3.16935 18.0919 5.8995" stroke="white" stroke-width="0.804518" stroke-miterlimit="10" stroke-linecap="round" stroke-linejoin="round"/>
<path d="M11.4301 5.93821C7.62097 7.30687 13.2854 13.1967 15.2999 11.3214C17.3145 9.44614 18.9344 2.66127 19.9607 0.672704C20.987 -1.31586 23.7518 -2.30276 25.9428 -2.20204C28.1338 -2.10131 28.3103 -0.125303 28.0859 1.85489C27.7773 4.57765 29.3845 7.62034 29.3845 7.62034" stroke="white" stroke-width="0.804518" stroke-miterlimit="10" stroke-linecap="round" stroke-linejoin="round"/>
<path d="M10.2679 14.7363C10.2679 14.7363 20.8835 17.5505 30.7453 18.2046C38.945 18.7509 43.9522 19.1344 45.3985 19.2475C45.5544 19.2629 45.6198 19.4584 45.4883 19.5587C44.701 20.168 42.771 21.6067 41.8579 21.7352C40.6877 21.9019 21.4835 21.5308 16.1648 20.3193C10.8461 19.1078 9.56187 18.7349 9.56187 18.7349" stroke="white" stroke-width="0.804518" stroke-miterlimit="10" stroke-linecap="round" stroke-linejoin="round"/>
<path d="M10.5921 11.213C10.5921 11.213 8.76892 11.1795 8.35623 11.5083C7.92373 11.8574 7.37883 13.7281 7.72816 14.6207C8.07749 15.5133 9.66786 15.5476 9.84216 17.057" stroke="white" stroke-width="0.804518" stroke-miterlimit="10" stroke-linecap="round" stroke-linejoin="round"/>
<path d="M10.5854 13.0827C9.83131 12.4045 8.62403 12.0154 8.91545 11.8733C9.20686 11.7312 9.53085 11.7432 9.53085 11.7432" stroke="white" stroke-width="0.804518" stroke-miterlimit="10" stroke-linecap="round" stroke-linejoin="round"/>
<path d="M17.1644 12.5381C11.3108 14.4998 11.985 19.5919 15.1598 19.4042L15.1857 19.3746" stroke="white" stroke-width="0.804518" stroke-miterlimit="10" stroke-linecap="round" stroke-linejoin="round"/>
<path d="M19.8948 9.86731C26.5258 4.35896 31.9088 8.53656 32.0038 10.1271" stroke="white" stroke-width="0.804518" stroke-miterlimit="10" stroke-linecap="round" stroke-linejoin="round"/>
<path d="M19.5525 15.0936C19.3181 12.083 21.7852 9.30675 27.398 9.24812" stroke="white" stroke-width="0.804518" stroke-miterlimit="10" stroke-linecap="round" stroke-linejoin="round"/>
<path d="M33.9775 11.4817C32.668 10.2283 27.9556 8.08338 23.0803 12.0127" stroke="white" stroke-width="0.804518" stroke-miterlimit="10" stroke-linecap="round" stroke-linejoin="round"/>
<path d="M22.5816 18.3996C21.6576 14.4072 25.6306 11.1517 29.8868 11.1382" stroke="white" stroke-width="0.804518" stroke-miterlimit="10" stroke-linecap="round" stroke-linejoin="round"/>
<path d="M26.1256 15.3958C28.5461 10.9543 37.0793 10.3027 39.3495 13.3262" stroke="white" stroke-width="0.804518" stroke-miterlimit="10" stroke-linecap="round" stroke-linejoin="round"/>
<path d="M26.5835 19.084C26.1256 15.3958 30.837 13.3533 33.2869 13.1577" stroke="white" stroke-width="0.804518" stroke-miterlimit="10" stroke-linecap="round" stroke-linejoin="round"/>
<path d="M31.125 16.9969C31.4661 14.4284 35.4174 13.3518 38.8202 14.2434" stroke="white" stroke-width="0.804518" stroke-miterlimit="10" stroke-linecap="round" stroke-linejoin="round"/>
<path d="M30.5806 7.68976C33.9884 6.96964 36.6192 9.15179 35.2318 10.5724" stroke="white" stroke-width="0.804518" stroke-miterlimit="10" stroke-linecap="round" stroke-linejoin="round"/>
</g>
<defs>
<clipPath id="clip0_1297_2433">
<rect width="49.1087" height="36" fill="white" transform="translate(0.947754 2.76566) rotate(-11.9319)"/>
</clipPath>
</defs>
</svg>
