<svg width="62" height="47" viewBox="0 0 62 47" fill="none" xmlns="http://www.w3.org/2000/svg">
<g clip-path="url(#clip0_1297_2432)">
<path d="M51.9045 13.5909C52.4471 12.5425 53.4428 12.3173 54.0444 12.4302C55.8326 12.7554 58.0619 14.9503 58.2189 16.3604C58.376 17.7706 57.6506 20.8352 57.6506 20.8352" stroke="white" strokeWidth="0.734217" stroke-miterlimit="10" stroke-linecap="round" stroke-linejoin="round"/>
<path d="M38.351 28.1335C38.351 28.1335 39.6474 28.0481 40.6278 26.8091C41.6083 25.5701 42.1578 23.2485 44.9196 23.608C47.6814 23.9674 47.8893 23.9186 48.2291 23.3125C48.5689 22.7065 48.0908 19.7493 49.1322 17.8382" stroke="white" strokeWidth="0.734217" stroke-miterlimit="10" stroke-linecap="round" stroke-linejoin="round"/>
<path d="M51.5555 23.4428C51.5555 23.4428 52.3106 27.2207 50.1876 27.895C48.0646 28.5693 45.8944 27.3692 44.909 28.2147C43.9235 29.0602 42.6403 31.9928 41.0211 32.198C39.4018 32.4031 39.5877 32.4471 39.5877 32.4471" stroke="white" strokeWidth="0.734217" stroke-miterlimit="10" stroke-linecap="round" stroke-linejoin="round"/>
<path d="M51.2399 27.0163C51.2399 27.0163 51.643 27.553 53.3804 29.3372C55.1178 31.1214 55.8244 30.2099 55.8244 30.2099C55.8244 30.2099 56.2489 27.1721 56.7765 24.9433C57.1062 23.5503 57.4705 22.5087 57.697 21.9249C57.8314 21.5644 57.8193 21.1595 57.6572 20.8073C57.2692 19.9996 56.4428 18.431 55.1047 16.702C53.1493 14.1797 52.8817 13.734 51.9318 13.5582C50.9841 13.3731 47.5931 18.1604 50.0454 21.4868C52.4976 24.8132 55.2627 27.2329 54.6522 30.2266" stroke="white" strokeWidth="0.734217" stroke-miterlimit="10" stroke-linecap="round" stroke-linejoin="round"/>
<path d="M55.8245 30.2099C55.8245 30.2099 56.2943 30.7134 56.0965 31.5492C55.8987 32.385 55.3961 33.3055 52.9102 34.2274C50.0046 35.3049 45.1248 36.0133 47.3632 29.8743C45.2572 30.0623 42.8082 34.2292 43.9923 36.2356C45.7449 39.2002 50.7126 38.1204 52.7325 36.6371C54.7525 35.1538 55.569 33.778 55.569 33.778C55.569 33.778 55.2814 36.652 55.2306 38.111C55.1797 39.57 54.3765 43.793 54.3765 43.793L50.2743 43.7047C50.2743 43.7047 51.5236 41.7448 51.9243 40.4667C52.325 39.1885 53.2143 36.2608 53.2143 36.2608" stroke="white" strokeWidth="0.734217" stroke-miterlimit="10" stroke-linecap="round" stroke-linejoin="round"/>
<path d="M19.4102 27.279C17.3042 27.467 16.9795 29.2535 16.9795 29.2535" stroke="white" strokeWidth="0.734217" stroke-miterlimit="10" stroke-linecap="round" stroke-linejoin="round"/>
<path d="M39.9985 12.0478C34.4616 8.48163 35.3198 13.9805 35.2959 15.7401" stroke="white" strokeWidth="0.734217" stroke-miterlimit="10" stroke-linecap="round" stroke-linejoin="round"/>
<path d="M37.3683 16.5248C37.3683 16.5248 39.0453 13.5874 41.133 10.1588C42.2246 8.36746 48.4215 7.56882 53.142 12.5108" stroke="white" strokeWidth="0.734217" stroke-miterlimit="10" stroke-linecap="round" stroke-linejoin="round"/>
<path d="M3.36588 33.6807C3.36588 33.6807 5.76592 34.7391 15.9088 37.9244C26.0516 41.1097 32.9779 44.6124 50.2742 43.7047" stroke="white" strokeWidth="0.734217" stroke-miterlimit="10" stroke-linecap="round" stroke-linejoin="round"/>
<path d="M39.8882 17.9058C37.9479 16.564 34.5464 15.4646 34.2176 16.5637C33.7509 18.1204 33.7509 18.1204 33.7509 18.1204" stroke="white" strokeWidth="0.734217" stroke-miterlimit="10" stroke-linecap="round" stroke-linejoin="round"/>
<path d="M40.6689 19.1694C43.1839 20.157 45.518 21.494 48.0701 23.5691" stroke="white" strokeWidth="0.734217" stroke-miterlimit="10" stroke-linecap="round" stroke-linejoin="round"/>
<path d="M32.9176 19.9826C33.751 18.1204 37.0166 18.0107 40.7689 17.9181C44.5212 17.8256 47.2222 18.8572 48.1078 19.2629" stroke="white" strokeWidth="0.734217" stroke-miterlimit="10" stroke-linecap="round" stroke-linejoin="round"/>
<path d="M54.3766 43.793L53.1681 47.4886C52.8426 48.4904 51.8967 49.1687 50.8329 49.1425C46.1099 49.0641 32.9879 48.6355 23.6174 46.4176C14.0982 44.1645 5.33548 40.3742 2.52897 38.8763C1.96209 38.5754 1.67565 37.9192 1.84151 37.3014C2.21111 35.9473 2.8759 33.7608 3.36607 33.6806C3.36607 33.6806 4.49534 31.3981 5.73269 30.318C8.36779 28.0192 14.3063 30.0132 19.2936 29.0166C24.2393 28.0296 28.5897 31.2169 28.5897 31.2169" stroke="white" strokeWidth="0.734217" stroke-miterlimit="10" stroke-linecap="round" stroke-linejoin="round"/>
<path d="M7.20482 29.4897C9.42398 30.8975 17.5542 32.8807 22.1157 34.0977C28.672 35.8457 29.39 36.0058 30.4263 37.1435C32.6116 39.5241 34.4576 37.117 32.0694 35.1788" stroke="white" strokeWidth="0.734217" stroke-miterlimit="10" stroke-linecap="round" stroke-linejoin="round"/>
<path d="M30.7336 21.329C30.8925 21.0724 31.6921 20.1829 33.7762 20.0877C35.8602 19.9926 40.3613 20.4696 41.6627 20.7776" stroke="white" strokeWidth="0.734217" stroke-miterlimit="10" stroke-linecap="round" stroke-linejoin="round"/>
<path d="M27.0114 23.7824C27.0114 23.7824 27.2312 22.8537 28.6866 22.5117C30.1419 22.1697 36.5242 22.9938 39.4719 23.3973" stroke="white" strokeWidth="0.734217" stroke-miterlimit="10" stroke-linecap="round" stroke-linejoin="round"/>
<path d="M19.4103 27.279C19.4103 27.279 20.1609 26.1817 21.1834 26.4237C22.206 26.6658 30.1837 29.0444 31.1234 30.0514" stroke="white" strokeWidth="0.734217" stroke-miterlimit="10" stroke-linecap="round" stroke-linejoin="round"/>
<path d="M21.1834 26.4237C21.1834 26.4237 22.007 25.5987 23.4653 25.4928C25.0626 25.3805 26.572 25.6397 28.896 26.1898" stroke="white" strokeWidth="0.734217" stroke-miterlimit="10" stroke-linecap="round" stroke-linejoin="round"/>
<path d="M35.6161 28.0746C34.7204 26.8819 31.8556 25.7135 29.6904 24.9068" stroke="white" strokeWidth="0.734217" stroke-miterlimit="10" stroke-linecap="round" stroke-linejoin="round"/>
<path d="M40.6278 26.8091C39.732 25.6164 35.6587 24.1619 33.2417 23.5899" stroke="white" strokeWidth="0.734217" stroke-miterlimit="10" stroke-linecap="round" stroke-linejoin="round"/>
<path d="M43.0925 23.8619C42.1967 22.6692 38.4124 22.0677 35.9954 21.4956" stroke="white" strokeWidth="0.734217" stroke-miterlimit="10" stroke-linecap="round" stroke-linejoin="round"/>
<path d="M23.4653 25.4928C23.4653 25.4928 24.1669 24.1878 25.6002 23.9386C26.8601 23.7171 31.4416 24.1444 33.8806 24.6236" stroke="white" strokeWidth="0.734217" stroke-miterlimit="10" stroke-linecap="round" stroke-linejoin="round"/>
<path d="M37.6667 43.4666C38.0033 40.8003 36.8065 37.8103 34.3764 36.2152C32.5071 34.9882 27.5852 34.2155 28.2277 31.9158C28.6264 30.4803 30.0448 30.8749 32.3707 29.7582C34.6965 28.6415 36.7604 26.9725 38.3509 28.1335C40.5845 29.7704 39.106 32.8235 39.5859 34.1139C40.0658 35.4043 44.1914 39.1268 43.2783 43.8141" stroke="white" strokeWidth="0.734217" stroke-miterlimit="10" stroke-linecap="round" stroke-linejoin="round"/>
<path d="M32.3707 29.7582C31.453 28.6584 28.8231 27.7417 26.3301 26.6613" stroke="white" strokeWidth="0.734217" stroke-miterlimit="10" stroke-linecap="round" stroke-linejoin="round"/>
</g>
<defs>
<clipPath id="clip0_1297_2432">
<rect width="52.8088" height="42" fill="white" transform="translate(10.5122 0.253357) rotate(13.3164)"/>
</clipPath>
</defs>
</svg>
